{
	"asset":{
		"generator":"Khronos glTF Blender I/O v3.5.30",
		"version":"2.0"
	},
	"scene":0,
	"scenes":[
		{
			"name":"Scene",
			"nodes":[
				0
			]
		}
	],
	"nodes":[
		{
			"mesh":0,
			"name":"Cube",
			"scale":[
				0.2885488271713257,
				0.2885488271713257,
				0.2885488271713257
			],
			"translation":[
				-0.03469223156571388,
				0,
				0
			]
		}
	],
	"meshes":[
		{
			"name":"Cube.002",
			"primitives":[
				{
					"attributes":{
						"POSITION":0,
						"TEXCOORD_0":1,
						"NORMAL":2
					},
					"indices":3
				}
			]
		}
	],
	"accessors":[
		{
			"bufferView":0,
			"componentType":5126,
			"count":648,
			"max":[
				1.9483320713043213,
				1,
				0.8376021981239319
			],
			"min":[
				-1.9454272985458374,
				-1,
				-0.8376021981239319
			],
			"type":"VEC3"
		},
		{
			"bufferView":1,
			"componentType":5126,
			"count":648,
			"type":"VEC2"
		},
		{
			"bufferView":2,
			"componentType":5126,
			"count":648,
			"type":"VEC3"
		},
		{
			"bufferView":3,
			"componentType":5123,
			"count":1632,
			"type":"SCALAR"
		}
	],
	"bufferViews":[
		{
			"buffer":0,
			"byteLength":7776,
			"byteOffset":0,
			"target":34962
		},
		{
			"buffer":0,
			"byteLength":5184,
			"byteOffset":7776,
			"target":34962
		},
		{
			"buffer":0,
			"byteLength":7776,
			"byteOffset":12960,
			"target":34962
		},
		{
			"buffer":0,
			"byteLength":3264,
			"byteOffset":20736,
			"target":34963
		}
	],
	"buffers":[
		{
			"byteLength":24000,
			"uri":"data:application/octet-stream;base64,"
		}
	]
}
