{
	"asset":{
		"generator":"Khronos glTF Blender I/O v3.5.30",
		"version":"2.0"
	},
	"scene":0,
	"scenes":[
		{
			"name":"Scene",
			"nodes":[
				0
			]
		}
	],
	"nodes":[
		{
			"mesh":0,
			"name":"AnvilMesh"
		}
	],
	"materials":[
		{
			"doubleSided":true,
			"name":"Material.001",
			"pbrMetallicRoughness":{
				"baseColorFactor":[
					0.07075151056051254,
					0.053318560123443604,
					0.06357574462890625,
					1
				],
				"metallicFactor":0.90625,
				"roughnessFactor":0.606249988079071
			}
		}
	],
	"meshes":[
		{
			"name":"Cube.002",
			"primitives":[
				{
					"attributes":{
						"POSITION":0,
						"TEXCOORD_0":1,
						"NORMAL":2
					},
					"indices":3,
					"material":0
				}
			]
		}
	],
	"accessors":[
		{
			"bufferView":0,
			"componentType":5126,
			"count":699,
			"max":[
				0.7562956809997559,
				0.40685367584228516,
				0.33837828040122986
			],
			"min":[
				-0.8167226910591125,
				-0.4011152982711792,
				-0.33837828040122986
			],
			"type":"VEC3"
		},
		{
			"bufferView":1,
			"componentType":5126,
			"count":699,
			"type":"VEC2"
		},
		{
			"bufferView":2,
			"componentType":5126,
			"count":699,
			"type":"VEC3"
		},
		{
			"bufferView":3,
			"componentType":5123,
			"count":1776,
			"type":"SCALAR"
		}
	],
	"bufferViews":[
		{
			"buffer":0,
			"byteLength":8388,
			"byteOffset":0,
			"target":34962
		},
		{
			"buffer":0,
			"byteLength":5592,
			"byteOffset":8388,
			"target":34962
		},
		{
			"buffer":0,
			"byteLength":8388,
			"byteOffset":13980,
			"target":34962
		},
		{
			"buffer":0,
			"byteLength":3552,
			"byteOffset":22368,
			"target":34963
		}
	],
	"buffers":[
		{
			"byteLength":25920,
			"uri":"data:application/octet-stream;base64,"
		}
	]
}
