{
	"asset":{
		"generator":"Khronos glTF Blender I/O v3.5.30",
		"version":"2.0"
	},
	"scene":0,
	"scenes":[
		{
			"name":"Scene",
			"nodes":[
				0
			]
		}
	],
	"nodes":[
		{
			"mesh":0,
			"name":"AnvilMesh"
		}
	],
	"meshes":[
		{
			"name":"Cube.002",
			"primitives":[
				{
					"attributes":{
						"POSITION":0,
						"TEXCOORD_0":1,
						"NORMAL":2
					},
					"indices":3
				}
			]
		}
	],
	"accessors":[
		{
			"bufferView":0,
			"componentType":5126,
			"count":622,
			"max":[
				0.7562956809997559,
				0.40685367584228516,
				0.33837828040122986
			],
			"min":[
				-0.8167226910591125,
				-0.4011152982711792,
				-0.33837828040122986
			],
			"type":"VEC3"
		},
		{
			"bufferView":1,
			"componentType":5126,
			"count":622,
			"type":"VEC2"
		},
		{
			"bufferView":2,
			"componentType":5126,
			"count":622,
			"type":"VEC3"
		},
		{
			"bufferView":3,
			"componentType":5123,
			"count":1632,
			"type":"SCALAR"
		}
	],
	"bufferViews":[
		{
			"buffer":0,
			"byteLength":7464,
			"byteOffset":0,
			"target":34962
		},
		{
			"buffer":0,
			"byteLength":4976,
			"byteOffset":7464,
			"target":34962
		},
		{
			"buffer":0,
			"byteLength":7464,
			"byteOffset":12440,
			"target":34962
		},
		{
			"buffer":0,
			"byteLength":3264,
			"byteOffset":19904,
			"target":34963
		}
	],
	"buffers":[
		{
			"byteLength":23168,
			"uri":"data:application/octet-stream;base64,"
		}
	]
}
