{
	"asset":{
		"generator":"Khronos glTF Blender I/O v3.5.30",
		"version":"2.0"
	},
	"extensionsUsed":[
		"KHR_lights_punctual",
		"KHR_materials_emissive_strength",
		"KHR_materials_specular",
		"KHR_materials_ior"
	],
	"extensionsRequired":[
		"KHR_lights_punctual"
	],
	"extensions":{
		"KHR_lights_punctual":{
			"lights":[
				{
					"color":[
						1,
						0.019152142107486725,
						0.002233951585367322
					],
					"intensity":7511.365119837578,
					"type":"point",
					"name":"Point.002"
				},
				{
					"color":[
						0,
						0.3564247190952301,
						1
					],
					"intensity":722.8737523093967,
					"type":"point",
					"name":"Point.003"
				},
				{
					"color":[
						0.12777414917945862,
						0.22069086134433746,
						1
					],
					"intensity":2771.9218590258083,
					"type":"point",
					"name":"Point"
				},
				{
					"color":[
						0.12777414917945862,
						0.22069086134433746,
						1
					],
					"intensity":2771.9218590258083,
					"type":"point",
					"name":"Point.001"
				}
			]
		}
	},
	"scene":0,
	"scenes":[
		{
			"name":"Scene",
			"nodes":[
				0,
				1,
				2,
				3,
				4,
				5,
				6,
				7,
				8,
				9,
				10,
				11,
				12,
				13,
				14,
				15,
				16
			]
		}
	],
	"nodes":[
		{
			"mesh":0,
			"name":"Cube.018",
			"rotation":[
				0,
				0.7071068286895752,
				0,
				0.7071068286895752
			]
		},
		{
			"extensions":{
				"KHR_lights_punctual":{
					"light":0
				}
			},
			"name":"Light",
			"rotation":[
				-0.5,
				0.5,
				0.5,
				0.5
			],
			"translation":[
				0,
				12.999999046325684,
				-10
			]
		},
		{
			"mesh":1,
			"name":"Cube.001",
			"rotation":[
				0,
				0.7071068286895752,
				0,
				0.7071068286895752
			]
		},
		{
			"mesh":2,
			"name":"Cube.002",
			"rotation":[
				0,
				0.7071068286895752,
				0,
				0.7071068286895752
			],
			"translation":[
				15,
				0.9999999403953552,
				28
			]
		},
		{
			"mesh":3,
			"name":"Objective0",
			"rotation":[
				0,
				0.7071068286895752,
				0,
				0.7071068286895752
			],
			"translation":[
				-75.49999237060547,
				31.61806297302246,
				102
			]
		},
		{
			"mesh":4,
			"name":"Cube.004",
			"rotation":[
				0,
				0.7071068286895752,
				0,
				0.7071068286895752
			],
			"translation":[
				15,
				0.9999999403953552,
				28
			]
		},
		{
			"extensions":{
				"KHR_lights_punctual":{
					"light":1
				}
			},
			"name":"Point",
			"rotation":[
				-0.5,
				0.5,
				0.5,
				0.5
			],
			"translation":[
				-75.40467834472656,
				42.614952087402344,
				101.86157989501953
			]
		},
		{
			"mesh":5,
			"name":"Cube"
		},
		{
			"mesh":6,
			"name":"Cube.003"
		},
		{
			"mesh":7,
			"name":"Cube.005",
			"translation":[
				0,
				-1,
				0
			]
		},
		{
			"mesh":8,
			"name":"Cube.006",
			"translation":[
				0,
				-5,
				0
			]
		},
		{
			"mesh":9,
			"name":"Cube.007",
			"scale":[
				100,
				100,
				100
			],
			"translation":[
				-330,
				-5,
				430
			]
		},
		{
			"extensions":{
				"KHR_lights_punctual":{
					"light":2
				}
			},
			"name":"Point.001",
			"rotation":[
				-0.7071068286895752,
				0,
				0,
				0.7071068286895752
			],
			"translation":[
				-63.069091796875,
				57.924896240234375,
				169.06910705566406
			]
		},
		{
			"extensions":{
				"KHR_lights_punctual":{
					"light":3
				}
			},
			"name":"Point.002",
			"rotation":[
				-0.7064217925071716,
				0.0311188455671072,
				0.0311188455671072,
				0.7064216732978821
			],
			"translation":[
				107.49763488769531,
				68.11875915527344,
				98.35745239257812
			]
		},
		{
			"mesh":10,
			"name":"Objective1",
			"rotation":[
				0,
				0.737540602684021,
				0,
				0.6753028631210327
			],
			"translation":[
				107.48838806152344,
				66.40373229980469,
				98.35586547851562
			]
		},
		{
			"mesh":11,
			"name":"Objective2",
			"rotation":[
				0,
				0.7071068286895752,
				0,
				0.7071068286895752
			],
			"translation":[
				-63.06909942626953,
				54.01582717895508,
				169.06910705566406
			]
		},
		{
			"mesh":12,
			"name":"Cube.008",
			"rotation":[
				0,
				0.737540602684021,
				0,
				0.6753028631210327
			],
			"translation":[
				89.78168487548828,
				43,
				48.68269348144531
			]
		}
	],
	"materials":[
		{
			"doubleSided":true,
			"name":"Wall",
			"pbrMetallicRoughness":{
				"baseColorFactor":[
					0.5171451568603516,
					0.5171451568603516,
					0.5171451568603516,
					1
				],
				"metallicFactor":0,
				"roughnessFactor":0.5
			}
		},
		{
			"doubleSided":true,
			"emissiveFactor":[
				1,
				0.02279897654862404,
				0
			],
			"extensions":{
				"KHR_materials_emissive_strength":{
					"emissiveStrength":1.0890267044305801
				},
				"KHR_materials_specular":{
					"specularColorFactor":[
						1.897086119821904,
						1.897086119821904,
						1.897086119821904
					]
				},
				"KHR_materials_ior":{
					"ior":1.4500000476837158
				}
			},
			"name":"Lava",
			"pbrMetallicRoughness":{
				"baseColorFactor":[
					1,
					0.007344417739659548,
					0,
					1
				],
				"metallicFactor":0.3062500059604645,
				"roughnessFactor":0.84375
			}
		},
		{
			"doubleSided":true,
			"emissiveFactor":[
				0,
				0.003559337230399251,
				0.011687752790749073
			],
			"extensions":{
				"KHR_materials_specular":{
					"specularColorFactor":[
						1.7350651121660805,
						2.3228014926178995,
						4.571571852208339
					]
				},
				"KHR_materials_ior":{
					"ior":1.4500000476837158
				}
			},
			"name":"Water",
			"pbrMetallicRoughness":{
				"baseColorFactor":[
					0.024585697799921036,
					0.18525488674640656,
					0.8000000715255737,
					1
				],
				"metallicFactor":0,
				"roughnessFactor":0.5
			}
		},
		{
			"doubleSided":true,
			"name":"upland",
			"pbrMetallicRoughness":{
				"baseColorFactor":[
					0.8000000715255737,
					0.5640534162521362,
					0.28067541122436523,
					1
				],
				"metallicFactor":0,
				"roughnessFactor":0.5
			}
		},
		{
			"doubleSided":true,
			"name":"upland2",
			"pbrMetallicRoughness":{
				"baseColorFactor":[
					0.8000000715255737,
					0.3601440191268921,
					0.14368563890457153,
					1
				],
				"metallicFactor":0,
				"roughnessFactor":0.5
			}
		},
		{
			"doubleSided":true,
			"name":"land",
			"pbrMetallicRoughness":{
				"baseColorFactor":[
					0.8000000715255737,
					0.6905760765075684,
					0.5517086982727051,
					1
				],
				"metallicFactor":0,
				"roughnessFactor":0.5
			}
		},
		{
			"doubleSided":true,
			"name":"upland3",
			"pbrMetallicRoughness":{
				"baseColorFactor":[
					0.2664080262184143,
					0.17156477272510529,
					0.047737281769514084,
					1
				],
				"metallicFactor":0,
				"roughnessFactor":0.5
			}
		}
	],
	"meshes":[
		{
			"name":"Cube.032",
			"primitives":[
				{
					"attributes":{
						"POSITION":0,
						"TEXCOORD_0":1,
						"NORMAL":2
					},
					"indices":3,
					"material":0
				}
			]
		},
		{
			"name":"Cube.033",
			"primitives":[
				{
					"attributes":{
						"POSITION":4,
						"TEXCOORD_0":5,
						"NORMAL":6
					},
					"indices":7,
					"material":1
				}
			]
		},
		{
			"name":"Cube.035",
			"primitives":[
				{
					"attributes":{
						"POSITION":8,
						"TEXCOORD_0":9,
						"NORMAL":10
					},
					"indices":11,
					"material":0
				}
			]
		},
		{
			"name":"Objective0",
			"primitives":[
				{
					"attributes":{
						"POSITION":12,
						"TEXCOORD_0":13,
						"NORMAL":14
					},
					"indices":15,
					"material":2
				}
			]
		},
		{
			"name":"Cube.037",
			"primitives":[
				{
					"attributes":{
						"POSITION":16,
						"TEXCOORD_0":17,
						"NORMAL":18
					},
					"indices":19,
					"material":2
				}
			]
		},
		{
			"name":"Cube",
			"primitives":[
				{
					"attributes":{
						"POSITION":20,
						"TEXCOORD_0":21,
						"NORMAL":22
					},
					"indices":23,
					"material":3
				}
			]
		},
		{
			"name":"Cube.001",
			"primitives":[
				{
					"attributes":{
						"POSITION":24,
						"TEXCOORD_0":25,
						"NORMAL":26
					},
					"indices":27,
					"material":4
				}
			]
		},
		{
			"name":"Cube.002",
			"primitives":[
				{
					"attributes":{
						"POSITION":28,
						"TEXCOORD_0":29,
						"NORMAL":30
					},
					"indices":31,
					"material":5
				}
			]
		},
		{
			"name":"Cube.003",
			"primitives":[
				{
					"attributes":{
						"POSITION":32,
						"TEXCOORD_0":33,
						"NORMAL":34
					},
					"indices":35,
					"material":2
				}
			]
		},
		{
			"name":"Cube.004",
			"primitives":[
				{
					"attributes":{
						"POSITION":36,
						"TEXCOORD_0":37,
						"NORMAL":38
					},
					"indices":39,
					"material":6
				}
			]
		},
		{
			"name":"Objective1",
			"primitives":[
				{
					"attributes":{
						"POSITION":40,
						"TEXCOORD_0":41,
						"NORMAL":42
					},
					"indices":43,
					"material":2
				}
			]
		},
		{
			"name":"Objective2",
			"primitives":[
				{
					"attributes":{
						"POSITION":44,
						"TEXCOORD_0":45,
						"NORMAL":46
					},
					"indices":47,
					"material":2
				}
			]
		},
		{
			"name":"Cube.005",
			"primitives":[
				{
					"attributes":{
						"POSITION":48,
						"TEXCOORD_0":49,
						"NORMAL":50
					},
					"indices":51,
					"material":2
				}
			]
		}
	],
	"accessors":[
		{
			"bufferView":0,
			"componentType":5126,
			"count":539,
			"max":[
				17,
				38,
				20.5
			],
			"min":[
				-8,
				0,
				-16
			],
			"type":"VEC3"
		},
		{
			"bufferView":1,
			"componentType":5126,
			"count":539,
			"type":"VEC2"
		},
		{
			"bufferView":2,
			"componentType":5126,
			"count":539,
			"type":"VEC3"
		},
		{
			"bufferView":3,
			"componentType":5123,
			"count":924,
			"type":"SCALAR"
		},
		{
			"bufferView":4,
			"componentType":5126,
			"count":24,
			"max":[
				11,
				12.5,
				3.1999998092651367
			],
			"min":[
				6,
				12,
				-3.200000286102295
			],
			"type":"VEC3"
		},
		{
			"bufferView":5,
			"componentType":5126,
			"count":24,
			"type":"VEC2"
		},
		{
			"bufferView":6,
			"componentType":5126,
			"count":24,
			"type":"VEC3"
		},
		{
			"bufferView":7,
			"componentType":5123,
			"count":36,
			"type":"SCALAR"
		},
		{
			"bufferView":8,
			"componentType":5126,
			"count":6383,
			"max":[
				51,
				84.92489624023438,
				131.3096466064453
			],
			"min":[
				-302,
				-3,
				-240.372314453125
			],
			"type":"VEC3"
		},
		{
			"bufferView":9,
			"componentType":5126,
			"count":6383,
			"type":"VEC2"
		},
		{
			"bufferView":10,
			"componentType":5126,
			"count":6383,
			"type":"VEC3"
		},
		{
			"bufferView":11,
			"componentType":5123,
			"count":12600,
			"type":"SCALAR"
		},
		{
			"bufferView":12,
			"componentType":5126,
			"count":24,
			"max":[
				3.5719985961914062,
				0.11958503723144531,
				3.565521240234375
			],
			"min":[
				-3.5719985961914062,
				-0.11958503723144531,
				-3.565521240234375
			],
			"type":"VEC3"
		},
		{
			"bufferView":13,
			"componentType":5126,
			"count":24,
			"type":"VEC2"
		},
		{
			"bufferView":14,
			"componentType":5126,
			"count":24,
			"type":"VEC3"
		},
		{
			"bufferView":15,
			"componentType":5123,
			"count":36,
			"type":"SCALAR"
		},
		{
			"bufferView":16,
			"componentType":5126,
			"count":112,
			"max":[
				-72.25514221191406,
				42.7667350769043,
				-88.80072784423828
			],
			"min":[
				-75.46803283691406,
				37.45707321166992,
				-92.0086441040039
			],
			"type":"VEC3"
		},
		{
			"bufferView":17,
			"componentType":5126,
			"count":112,
			"type":"VEC2"
		},
		{
			"bufferView":18,
			"componentType":5126,
			"count":112,
			"type":"VEC3"
		},
		{
			"bufferView":19,
			"componentType":5123,
			"count":168,
			"type":"SCALAR"
		},
		{
			"bufferView":20,
			"componentType":5126,
			"count":766,
			"max":[
				632.559326171875,
				24.609386444091797,
				754.0084838867188
			],
			"min":[
				-576.3839111328125,
				-5.8303937911987305,
				-192.02090454101562
			],
			"type":"VEC3"
		},
		{
			"bufferView":21,
			"componentType":5126,
			"count":766,
			"type":"VEC2"
		},
		{
			"bufferView":22,
			"componentType":5126,
			"count":766,
			"type":"VEC3"
		},
		{
			"bufferView":23,
			"componentType":5123,
			"count":1362,
			"type":"SCALAR"
		},
		{
			"bufferView":24,
			"componentType":5126,
			"count":580,
			"max":[
				216.62852478027344,
				49.989158630371094,
				525.666015625
			],
			"min":[
				-375.23443603515625,
				-1.306070327758789,
				127.71636199951172
			],
			"type":"VEC3"
		},
		{
			"bufferView":25,
			"componentType":5126,
			"count":580,
			"type":"VEC2"
		},
		{
			"bufferView":26,
			"componentType":5126,
			"count":580,
			"type":"VEC3"
		},
		{
			"bufferView":27,
			"componentType":5123,
			"count":966,
			"type":"SCALAR"
		},
		{
			"bufferView":28,
			"componentType":5126,
			"count":96,
			"max":[
				400,
				1,
				496
			],
			"min":[
				-838,
				-5,
				-244.42857360839844
			],
			"type":"VEC3"
		},
		{
			"bufferView":29,
			"componentType":5126,
			"count":96,
			"type":"VEC2"
		},
		{
			"bufferView":30,
			"componentType":5126,
			"count":96,
			"type":"VEC3"
		},
		{
			"bufferView":31,
			"componentType":5123,
			"count":204,
			"type":"SCALAR"
		},
		{
			"bufferView":32,
			"componentType":5126,
			"count":64,
			"max":[
				1002,
				1,
				829
			],
			"min":[
				-1011,
				-5,
				-1072
			],
			"type":"VEC3"
		},
		{
			"bufferView":33,
			"componentType":5126,
			"count":64,
			"type":"VEC2"
		},
		{
			"bufferView":34,
			"componentType":5126,
			"count":64,
			"type":"VEC3"
		},
		{
			"bufferView":35,
			"componentType":5123,
			"count":156,
			"type":"SCALAR"
		},
		{
			"bufferView":36,
			"componentType":5126,
			"count":320,
			"max":[
				9.24837589263916,
				2.2602038383483887,
				8.248377799987793
			],
			"min":[
				-6.139281272888184,
				-0.2602039575576782,
				-2.3445444107055664
			],
			"type":"VEC3"
		},
		{
			"bufferView":37,
			"componentType":5126,
			"count":320,
			"type":"VEC2"
		},
		{
			"bufferView":38,
			"componentType":5126,
			"count":320,
			"type":"VEC3"
		},
		{
			"bufferView":39,
			"componentType":5123,
			"count":420,
			"type":"SCALAR"
		},
		{
			"bufferView":40,
			"componentType":5126,
			"count":60,
			"max":[
				0.8506431579589844,
				1,
				0.8944234848022461
			],
			"min":[
				-0.8506355285644531,
				-1,
				-0.8944272994995117
			],
			"type":"VEC3"
		},
		{
			"bufferView":41,
			"componentType":5126,
			"count":60,
			"type":"VEC2"
		},
		{
			"bufferView":42,
			"componentType":5126,
			"count":60,
			"type":"VEC3"
		},
		{
			"bufferView":43,
			"componentType":5123,
			"count":60,
			"type":"SCALAR"
		},
		{
			"bufferView":44,
			"componentType":5126,
			"count":104,
			"max":[
				3.9530181884765625,
				2.909069061279297,
				4.043663024902344
			],
			"min":[
				-3.9529876708984375,
				-2.090930938720703,
				-4.043647766113281
			],
			"type":"VEC3"
		},
		{
			"bufferView":45,
			"componentType":5126,
			"count":104,
			"type":"VEC2"
		},
		{
			"bufferView":46,
			"componentType":5126,
			"count":104,
			"type":"VEC3"
		},
		{
			"bufferView":47,
			"componentType":5123,
			"count":186,
			"type":"SCALAR"
		},
		{
			"bufferView":48,
			"componentType":5126,
			"count":216,
			"max":[
				-47.689605712890625,
				22.403730392456055,
				16.933509826660156
			],
			"min":[
				-54.38587951660156,
				18,
				9.60698127746582
			],
			"type":"VEC3"
		},
		{
			"bufferView":49,
			"componentType":5126,
			"count":216,
			"type":"VEC2"
		},
		{
			"bufferView":50,
			"componentType":5126,
			"count":216,
			"type":"VEC3"
		},
		{
			"bufferView":51,
			"componentType":5123,
			"count":420,
			"type":"SCALAR"
		}
	],
	"bufferViews":[
		{
			"buffer":0,
			"byteLength":6468,
			"byteOffset":0,
			"target":34962
		},
		{
			"buffer":0,
			"byteLength":4312,
			"byteOffset":6468,
			"target":34962
		},
		{
			"buffer":0,
			"byteLength":6468,
			"byteOffset":10780,
			"target":34962
		},
		{
			"buffer":0,
			"byteLength":1848,
			"byteOffset":17248,
			"target":34963
		},
		{
			"buffer":0,
			"byteLength":288,
			"byteOffset":19096,
			"target":34962
		},
		{
			"buffer":0,
			"byteLength":192,
			"byteOffset":19384,
			"target":34962
		},
		{
			"buffer":0,
			"byteLength":288,
			"byteOffset":19576,
			"target":34962
		},
		{
			"buffer":0,
			"byteLength":72,
			"byteOffset":19864,
			"target":34963
		},
		{
			"buffer":0,
			"byteLength":76596,
			"byteOffset":19936,
			"target":34962
		},
		{
			"buffer":0,
			"byteLength":51064,
			"byteOffset":96532,
			"target":34962
		},
		{
			"buffer":0,
			"byteLength":76596,
			"byteOffset":147596,
			"target":34962
		},
		{
			"buffer":0,
			"byteLength":25200,
			"byteOffset":224192,
			"target":34963
		},
		{
			"buffer":0,
			"byteLength":288,
			"byteOffset":249392,
			"target":34962
		},
		{
			"buffer":0,
			"byteLength":192,
			"byteOffset":249680,
			"target":34962
		},
		{
			"buffer":0,
			"byteLength":288,
			"byteOffset":249872,
			"target":34962
		},
		{
			"buffer":0,
			"byteLength":72,
			"byteOffset":250160,
			"target":34963
		},
		{
			"buffer":0,
			"byteLength":1344,
			"byteOffset":250232,
			"target":34962
		},
		{
			"buffer":0,
			"byteLength":896,
			"byteOffset":251576,
			"target":34962
		},
		{
			"buffer":0,
			"byteLength":1344,
			"byteOffset":252472,
			"target":34962
		},
		{
			"buffer":0,
			"byteLength":336,
			"byteOffset":253816,
			"target":34963
		},
		{
			"buffer":0,
			"byteLength":9192,
			"byteOffset":254152,
			"target":34962
		},
		{
			"buffer":0,
			"byteLength":6128,
			"byteOffset":263344,
			"target":34962
		},
		{
			"buffer":0,
			"byteLength":9192,
			"byteOffset":269472,
			"target":34962
		},
		{
			"buffer":0,
			"byteLength":2724,
			"byteOffset":278664,
			"target":34963
		},
		{
			"buffer":0,
			"byteLength":6960,
			"byteOffset":281388,
			"target":34962
		},
		{
			"buffer":0,
			"byteLength":4640,
			"byteOffset":288348,
			"target":34962
		},
		{
			"buffer":0,
			"byteLength":6960,
			"byteOffset":292988,
			"target":34962
		},
		{
			"buffer":0,
			"byteLength":1932,
			"byteOffset":299948,
			"target":34963
		},
		{
			"buffer":0,
			"byteLength":1152,
			"byteOffset":301880,
			"target":34962
		},
		{
			"buffer":0,
			"byteLength":768,
			"byteOffset":303032,
			"target":34962
		},
		{
			"buffer":0,
			"byteLength":1152,
			"byteOffset":303800,
			"target":34962
		},
		{
			"buffer":0,
			"byteLength":408,
			"byteOffset":304952,
			"target":34963
		},
		{
			"buffer":0,
			"byteLength":768,
			"byteOffset":305360,
			"target":34962
		},
		{
			"buffer":0,
			"byteLength":512,
			"byteOffset":306128,
			"target":34962
		},
		{
			"buffer":0,
			"byteLength":768,
			"byteOffset":306640,
			"target":34962
		},
		{
			"buffer":0,
			"byteLength":312,
			"byteOffset":307408,
			"target":34963
		},
		{
			"buffer":0,
			"byteLength":3840,
			"byteOffset":307720,
			"target":34962
		},
		{
			"buffer":0,
			"byteLength":2560,
			"byteOffset":311560,
			"target":34962
		},
		{
			"buffer":0,
			"byteLength":3840,
			"byteOffset":314120,
			"target":34962
		},
		{
			"buffer":0,
			"byteLength":840,
			"byteOffset":317960,
			"target":34963
		},
		{
			"buffer":0,
			"byteLength":720,
			"byteOffset":318800,
			"target":34962
		},
		{
			"buffer":0,
			"byteLength":480,
			"byteOffset":319520,
			"target":34962
		},
		{
			"buffer":0,
			"byteLength":720,
			"byteOffset":320000,
			"target":34962
		},
		{
			"buffer":0,
			"byteLength":120,
			"byteOffset":320720,
			"target":34963
		},
		{
			"buffer":0,
			"byteLength":1248,
			"byteOffset":320840,
			"target":34962
		},
		{
			"buffer":0,
			"byteLength":832,
			"byteOffset":322088,
			"target":34962
		},
		{
			"buffer":0,
			"byteLength":1248,
			"byteOffset":322920,
			"target":34962
		},
		{
			"buffer":0,
			"byteLength":372,
			"byteOffset":324168,
			"target":34963
		},
		{
			"buffer":0,
			"byteLength":2592,
			"byteOffset":324540,
			"target":34962
		},
		{
			"buffer":0,
			"byteLength":1728,
			"byteOffset":327132,
			"target":34962
		},
		{
			"buffer":0,
			"byteLength":2592,
			"byteOffset":328860,
			"target":34962
		},
		{
			"buffer":0,
			"byteLength":840,
			"byteOffset":331452,
			"target":34963
		}
	],
	"buffers":[
		{
			"byteLength":332292,
			"uri":"data:application/octet-stream;base64,"
		}
	]
}
