{
	"asset":{
		"generator":"Khronos glTF Blender I/O v3.5.30",
		"version":"2.0"
	},
	"scene":0,
	"scenes":[
		{
			"name":"Scene",
			"nodes":[
				0,
				1,
				2,
				3,
				4,
				5,
				6
			]
		}
	],
	"nodes":[
		{
			"mesh":0,
			"name":"Cube",
			"scale":[
				5,
				1,
				5
			]
		},
		{
			"mesh":1,
			"name":"Cube.001",
			"scale":[
				9,
				1,
				5
			],
			"translation":[
				0,
				0,
				-10
			]
		},
		{
			"mesh":2,
			"name":"Cube.002",
			"scale":[
				9,
				1,
				5
			],
			"translation":[
				21,
				0,
				-10
			]
		},
		{
			"mesh":3,
			"name":"Cube.003",
			"scale":[
				5,
				1,
				5
			],
			"translation":[
				21,
				0,
				-20
			]
		},
		{
			"mesh":4,
			"name":"Cube.004",
			"scale":[
				5,
				1,
				5
			],
			"translation":[
				-25,
				0,
				5
			]
		},
		{
			"mesh":5,
			"name":"Cube.005",
			"scale":[
				5,
				1,
				5
			],
			"translation":[
				15,
				0,
				25
			]
		},
		{
			"mesh":6,
			"name":"Plane"
		}
	],
	"materials":[
		{
			"doubleSided":true,
			"name":"Test",
			"pbrMetallicRoughness":{
				"baseColorFactor":[
					0.8000000715255737,
					0,
					0.00826175045222044,
					1
				],
				"metallicFactor":0,
				"roughnessFactor":0.5
			}
		}
	],
	"meshes":[
		{
			"name":"Cube",
			"primitives":[
				{
					"attributes":{
						"POSITION":0,
						"TEXCOORD_0":1,
						"NORMAL":2
					},
					"indices":3,
					"material":0
				}
			]
		},
		{
			"name":"Cube.001",
			"primitives":[
				{
					"attributes":{
						"POSITION":4,
						"TEXCOORD_0":5,
						"NORMAL":6
					},
					"indices":3,
					"material":0
				}
			]
		},
		{
			"name":"Cube.002",
			"primitives":[
				{
					"attributes":{
						"POSITION":7,
						"TEXCOORD_0":8,
						"NORMAL":9
					},
					"indices":3,
					"material":0
				}
			]
		},
		{
			"name":"Cube.003",
			"primitives":[
				{
					"attributes":{
						"POSITION":10,
						"TEXCOORD_0":11,
						"NORMAL":12
					},
					"indices":3,
					"material":0
				}
			]
		},
		{
			"name":"Cube.004",
			"primitives":[
				{
					"attributes":{
						"POSITION":13,
						"TEXCOORD_0":14,
						"NORMAL":15
					},
					"indices":3,
					"material":0
				}
			]
		},
		{
			"name":"Cube.005",
			"primitives":[
				{
					"attributes":{
						"POSITION":16,
						"TEXCOORD_0":17,
						"NORMAL":18
					},
					"indices":3,
					"material":0
				}
			]
		},
		{
			"name":"Plane",
			"primitives":[
				{
					"attributes":{
						"POSITION":19,
						"TEXCOORD_0":20,
						"NORMAL":21
					},
					"indices":22
				}
			]
		}
	],
	"accessors":[
		{
			"bufferView":0,
			"componentType":5126,
			"count":24,
			"max":[
				1,
				12,
				1
			],
			"min":[
				-1,
				0,
				-1
			],
			"type":"VEC3"
		},
		{
			"bufferView":1,
			"componentType":5126,
			"count":24,
			"type":"VEC2"
		},
		{
			"bufferView":2,
			"componentType":5126,
			"count":24,
			"type":"VEC3"
		},
		{
			"bufferView":3,
			"componentType":5123,
			"count":36,
			"type":"SCALAR"
		},
		{
			"bufferView":4,
			"componentType":5126,
			"count":24,
			"max":[
				1,
				13,
				1
			],
			"min":[
				-1,
				0,
				-1
			],
			"type":"VEC3"
		},
		{
			"bufferView":5,
			"componentType":5126,
			"count":24,
			"type":"VEC2"
		},
		{
			"bufferView":6,
			"componentType":5126,
			"count":24,
			"type":"VEC3"
		},
		{
			"bufferView":7,
			"componentType":5126,
			"count":24,
			"max":[
				0.555555522441864,
				13,
				1
			],
			"min":[
				-1,
				0,
				-1
			],
			"type":"VEC3"
		},
		{
			"bufferView":8,
			"componentType":5126,
			"count":24,
			"type":"VEC2"
		},
		{
			"bufferView":9,
			"componentType":5126,
			"count":24,
			"type":"VEC3"
		},
		{
			"bufferView":10,
			"componentType":5126,
			"count":24,
			"max":[
				1,
				12,
				1
			],
			"min":[
				-1,
				0,
				-1
			],
			"type":"VEC3"
		},
		{
			"bufferView":11,
			"componentType":5126,
			"count":24,
			"type":"VEC2"
		},
		{
			"bufferView":12,
			"componentType":5126,
			"count":24,
			"type":"VEC3"
		},
		{
			"bufferView":13,
			"componentType":5126,
			"count":24,
			"max":[
				1,
				17,
				1
			],
			"min":[
				-1,
				0,
				-1
			],
			"type":"VEC3"
		},
		{
			"bufferView":14,
			"componentType":5126,
			"count":24,
			"type":"VEC2"
		},
		{
			"bufferView":15,
			"componentType":5126,
			"count":24,
			"type":"VEC3"
		},
		{
			"bufferView":16,
			"componentType":5126,
			"count":24,
			"max":[
				1,
				17,
				1
			],
			"min":[
				-1,
				0,
				-1
			],
			"type":"VEC3"
		},
		{
			"bufferView":17,
			"componentType":5126,
			"count":24,
			"type":"VEC2"
		},
		{
			"bufferView":18,
			"componentType":5126,
			"count":24,
			"type":"VEC3"
		},
		{
			"bufferView":19,
			"componentType":5126,
			"count":2904,
			"max":[
				200,
				0,
				200
			],
			"min":[
				-200,
				-10,
				-200
			],
			"type":"VEC3"
		},
		{
			"bufferView":20,
			"componentType":5126,
			"count":2904,
			"type":"VEC2"
		},
		{
			"bufferView":21,
			"componentType":5126,
			"count":2904,
			"type":"VEC3"
		},
		{
			"bufferView":22,
			"componentType":5123,
			"count":15876,
			"type":"SCALAR"
		}
	],
	"bufferViews":[
		{
			"buffer":0,
			"byteLength":288,
			"byteOffset":0,
			"target":34962
		},
		{
			"buffer":0,
			"byteLength":192,
			"byteOffset":288,
			"target":34962
		},
		{
			"buffer":0,
			"byteLength":288,
			"byteOffset":480,
			"target":34962
		},
		{
			"buffer":0,
			"byteLength":72,
			"byteOffset":768,
			"target":34963
		},
		{
			"buffer":0,
			"byteLength":288,
			"byteOffset":840,
			"target":34962
		},
		{
			"buffer":0,
			"byteLength":192,
			"byteOffset":1128,
			"target":34962
		},
		{
			"buffer":0,
			"byteLength":288,
			"byteOffset":1320,
			"target":34962
		},
		{
			"buffer":0,
			"byteLength":288,
			"byteOffset":1608,
			"target":34962
		},
		{
			"buffer":0,
			"byteLength":192,
			"byteOffset":1896,
			"target":34962
		},
		{
			"buffer":0,
			"byteLength":288,
			"byteOffset":2088,
			"target":34962
		},
		{
			"buffer":0,
			"byteLength":288,
			"byteOffset":2376,
			"target":34962
		},
		{
			"buffer":0,
			"byteLength":192,
			"byteOffset":2664,
			"target":34962
		},
		{
			"buffer":0,
			"byteLength":288,
			"byteOffset":2856,
			"target":34962
		},
		{
			"buffer":0,
			"byteLength":288,
			"byteOffset":3144,
			"target":34962
		},
		{
			"buffer":0,
			"byteLength":192,
			"byteOffset":3432,
			"target":34962
		},
		{
			"buffer":0,
			"byteLength":288,
			"byteOffset":3624,
			"target":34962
		},
		{
			"buffer":0,
			"byteLength":288,
			"byteOffset":3912,
			"target":34962
		},
		{
			"buffer":0,
			"byteLength":192,
			"byteOffset":4200,
			"target":34962
		},
		{
			"buffer":0,
			"byteLength":288,
			"byteOffset":4392,
			"target":34962
		},
		{
			"buffer":0,
			"byteLength":34848,
			"byteOffset":4680,
			"target":34962
		},
		{
			"buffer":0,
			"byteLength":23232,
			"byteOffset":39528,
			"target":34962
		},
		{
			"buffer":0,
			"byteLength":34848,
			"byteOffset":62760,
			"target":34962
		},
		{
			"buffer":0,
			"byteLength":31752,
			"byteOffset":97608,
			"target":34963
		}
	],
	"buffers":[
		{
			"byteLength":129360,
			"uri":"data:application/octet-stream;base64,"
		}
	]
}
